<svg xmlns="http://www.w3.org/2000/svg" width="112" height="140" viewBox="0 0 112 140">
    <g fill="none" fill-rule="evenodd">
        <path fill="#3E637A" d="M2.065 39.114l51-36.985c1.75-1.27 4.12-1.27 5.87 0l51 36.985c1.297.94 2.065 2.445 2.065 4.047v58.288c0 1.659-.823 3.21-2.198 4.14l-51 34.515c-1.692 1.145-3.912 1.145-5.604 0l-51-34.515C.823 104.66 0 103.108 0 101.45V43.16c0-1.602.768-3.107 2.065-4.047z" opacity=".91" style="mix-blend-mode:multiply" transform="translate(0 -1)"/>
        <path stroke="#FFF" stroke-linecap="round" stroke-linejoin="round" stroke-width="4" d="M44 44L44 98 86 71.893 55.911 52.447" transform="translate(0 -1)"/>
    </g>
</svg>
