<?xml version="1.0" encoding="utf-8"?>
<!-- Generator: Adobe Illustrator 23.1.1, SVG Export Plug-In . SVG Version: 6.00 Build 0)  -->
<svg version="1.1" id="Layer_1" xmlns="http://www.w3.org/2000/svg" xmlns:xlink="http://www.w3.org/1999/xlink" x="0px" y="0px"
	 viewBox="0 0 326.41 69.73" style="enable-background:new 0 0 326.41 69.73;" xml:space="preserve">
<style type="text/css">
	.st0{fill:#04978A;}
	.st1{fill:#2B365A;}
	.st2{fill:#6E6F71;}
</style>
<g>
	<path class="st0" d="M38.57,12.53c-0.35-1.12-3.57-5.32-6.51-7.28c-3.08-1.96-5.6-3.43-14.7-3.43h-4.9v4.9v3.92v13.65h4.83
		c8.19-0.21,9.52-6.86,9.52-6.86V32.2c0,0-1.33-7.07-9.52-7.14h-4.83v19.6c0,5.18,5.18,5.46,6.02,5.46H0c0.84,0,5.95-0.21,5.95-5.46
		v-1.26v-3.64V7.77V6.58c0-5.32-5.11-5.46-5.95-5.46h35.98L38.57,12.53z"/>
	<path class="st0" d="M33.11,38.3c-1.96-9.45,2.87-17.99,11.69-20.3c10.01-2.59,19.25,2.03,20.58,13.79
		c1.19,10.57-5.95,18.55-14.98,18.97C45.43,50.97,35.63,49.5,33.11,38.3 M44.66,18.69c-5.88,2.17-7.21,10.78-5.6,18.27
		c2.03,10.08,8.19,13.23,13.02,12.81c7.14-0.77,8.89-10.22,7.21-19.18C57.75,22.54,51.94,15.96,44.66,18.69"/>
	<path class="st0" d="M93.87,21.21c0,1.26-0.7,3.29-2.94,3.36c-2.52,0.07-2.94-1.82-4.06-2.66c-1.19-0.98-4.06-1.89-8.19,3.57v20.09
		c0,4.55,4.69,4.55,5.25,4.55H68.04c0.56,0,5.18,0,5.18-4.55v-0.91v-18.9c0-2.87-1.75-3.43-2.8-3.29l8.26-5.25v4.83v1.61v1.47
		c2.73-5.04,7.35-7.7,11.41-7.56C93.1,17.71,93.87,19.95,93.87,21.21"/>
	<path class="st0" d="M119.49,41.87c-0.56,2.94-2.94,9.17-10.15,8.89c-7.56-0.28-8.68-6.72-8.68-13.65V19.18h-3.01l-0.84-0.63h3.85
		v-8.33l5.53-4.62c0,0,0,6.09-0.07,12.95h8.54l-0.63,0.63h-7.91c0,7.63-0.07,16.03,0,18.2c0.07,6.09,0.63,9.87,5.32,10.29
		C115.78,48.1,118.37,44.74,119.49,41.87"/>
	<path class="st0" d="M152.39,18.62c0,0-2.52,0.63-4.27,2.66c-0.84,0.77-1.61,2.17-2.17,3.5l-10.92,26.74l-3.99,9.59
		c-1.54,3.71-3.29,4.13-5.39,3.85c-1.75-0.28-2.8-2.03-2.38-3.71c0.35-1.05,1.33-2.1,2.94-2.03c1.33,0.14,1.89,1.54,2.66,1.68
		c1.26,0.28,2.03-0.77,2.73-2.31l3.08-7.49l-12.6-28.49c-2.03-3.99-5.46-3.99-5.46-3.99h14.14c0,0-4.27,0.35-2.73,4.06l7.28,16.94
		c0.63,1.33,1.19,2.17,2.1,2.17c1.05,0,1.54-1.54,2.24-2.87l5.6-13.72l0.28-0.77c1.12-3.22-0.56-5.32-4.27-5.81H152.39z"/>
	<path class="st1" d="M180.61,6.44c-4.76-4.69-12.25-6.44-17.08-3.57c-2.8,1.75-3.99,5.18-3.43,8.54c0.77,4.76,4.41,7.91,12.11,9.52
		c13.58,2.8,18.13,7.98,17.15,17.01c-0.77,9.73-8.96,13.16-16.87,13.16c-7.49-0.07-13.86-1.96-18.34-5.32L154,32.48
		c2.87,8.19,9.87,14.7,17.5,16.52c6.79,1.47,14.07-0.21,14.35-7.42c0.28-5.11-2.45-10.15-16.1-13.3
		c-11.83-2.8-14.49-8.33-14.14-14.98c0.28-7.98,7.42-12.95,16.87-12.88c8.33,0.07,13.65,3.43,13.65,3.43l0.07,9.87
		C186.21,13.72,184.95,10.43,180.61,6.44"/>
	<path class="st1" d="M194.39,38.3c-1.96-9.45,2.87-17.99,11.69-20.3c10.01-2.59,19.25,2.03,20.58,13.79
		c1.19,10.57-5.95,18.55-14.98,18.97C206.71,50.97,196.91,49.5,194.39,38.3 M205.94,18.69c-5.88,2.17-7.21,10.78-5.6,18.27
		c2.03,10.08,8.19,13.23,13.02,12.81c7.14-0.77,8.89-10.22,7.21-19.18C219.03,22.54,213.22,15.96,205.94,18.69"/>
	<path class="st1" d="M254.59,43.27c-2.66,3.29-8.61,8.05-14.63,7.56c-6.72-0.63-6.3-7.07-6.3-13.79V23.45
		c0-4.83-4.48-4.83-4.97-4.83h10.43v4.83v11.69c0,6.79-0.07,10.78,3.5,11.97C245.7,48.31,251.23,46.49,254.59,43.27 M250.18,18.62
		h10.29v24.64c0,2.87,2.17,2.52,2.66,2.52l-8.12,5.25v-4.9V23.17C255.01,18.62,250.67,18.62,250.18,18.62"/>
	<path class="st1" d="M289.8,41.87c-0.56,2.94-2.94,9.17-10.15,8.89c-7.56-0.28-8.68-6.72-8.68-13.65V19.18h-3.01l-0.84-0.63h3.85
		v-8.33l5.53-4.62c0,0,0,6.09-0.07,12.95h8.54l-0.63,0.63h-7.91c0,7.63-0.07,16.03,0,18.2c0.07,6.09,0.63,9.87,5.32,10.29
		C286.09,48.1,288.68,44.74,289.8,41.87"/>
	<path class="st1" d="M305.48,50.13H289.1c0.56,0,5.46,0,5.46-4.76V8.68c0-3.99-2.31-3.29-2.94-3.29l8.4-5.39v45.37
		C300.02,50.13,304.92,50.13,305.48,50.13 M326.41,50.13h-15.33c0.49,0,4.9,0,4.9-4.76V33.32c0-6.72,0.21-10.85-3.57-12.04
		c-3.01-1.19-8.26,0.77-11.69,3.92c2.66-3.22,8.33-8.12,14.35-7.56c6.93,0.63,6.37,7.14,6.37,13.86v13.86
		C321.44,50.13,325.92,50.13,326.41,50.13"/>
	<polygon class="st2" points="236.04,69.47 234.99,69.47 234.99,60.16 231.56,60.16 231.56,59.2 239.47,59.2 239.47,60.16 
		236.04,60.16 	"/>
	<path class="st2" d="M242.49,69.47h-1.22l4.47-10.27h1.02l4.47,10.27H250l-1.13-2.7h-5.25L242.49,69.47z M244.01,65.82h4.45
		l-2.22-5.39L244.01,65.82z"/>
	<path class="st2" d="M260.05,60.9c-0.45-0.67-1.12-1-1.99-1c-0.27,0-0.54,0.04-0.8,0.11c-0.26,0.07-0.5,0.19-0.7,0.33
		c-0.21,0.15-0.38,0.34-0.5,0.58c-0.12,0.24-0.19,0.51-0.19,0.83c0,0.46,0.13,0.82,0.39,1.08c0.26,0.26,0.59,0.47,0.97,0.63
		c0.39,0.16,0.81,0.31,1.27,0.44c0.46,0.13,0.88,0.3,1.27,0.52c0.39,0.22,0.71,0.5,0.97,0.86c0.26,0.36,0.39,0.85,0.39,1.46
		c0,0.46-0.1,0.88-0.3,1.25c-0.2,0.37-0.46,0.68-0.78,0.93c-0.32,0.25-0.69,0.44-1.09,0.58c-0.4,0.14-0.8,0.2-1.21,0.2
		c-0.63,0-1.23-0.12-1.79-0.35s-1.05-0.63-1.44-1.17l0.96-0.68c0.22,0.38,0.53,0.68,0.92,0.91c0.4,0.23,0.86,0.34,1.4,0.34
		c0.26,0,0.52-0.04,0.78-0.12c0.26-0.08,0.49-0.2,0.7-0.36c0.21-0.16,0.38-0.36,0.51-0.59c0.14-0.23,0.2-0.5,0.2-0.8
		c0-0.36-0.07-0.65-0.22-0.89c-0.15-0.24-0.35-0.43-0.59-0.59c-0.25-0.16-0.53-0.29-0.84-0.4c-0.32-0.1-0.64-0.21-0.97-0.32
		c-0.33-0.11-0.66-0.23-0.97-0.36c-0.32-0.14-0.6-0.31-0.84-0.52c-0.25-0.21-0.44-0.47-0.59-0.78c-0.15-0.31-0.23-0.71-0.23-1.18
		c0-0.49,0.1-0.92,0.28-1.29c0.19-0.37,0.44-0.67,0.75-0.91c0.31-0.24,0.67-0.42,1.07-0.54c0.4-0.12,0.8-0.17,1.22-0.17
		c0.58,0,1.11,0.09,1.58,0.27c0.47,0.18,0.91,0.51,1.32,0.97L260.05,60.9z"/>
	<polygon class="st2" points="270.89,67.56 274.36,59.2 275.95,59.2 275.95,69.47 274.91,69.47 274.91,60.6 274.88,60.6 
		271.17,69.47 270.62,69.47 266.91,60.6 266.88,60.6 266.88,69.47 265.83,69.47 265.83,59.2 267.43,59.2 	"/>
	<path class="st2" d="M281.15,69.47h-1.22l4.47-10.27h1.02l4.47,10.27h-1.22l-1.13-2.7h-5.25L281.15,69.47z M282.67,65.82h4.45
		l-2.22-5.39L282.67,65.82z"/>
	<polygon class="st2" points="301.27,67.91 301.3,67.91 301.3,59.21 302.34,59.21 302.34,69.47 301.04,69.47 294.92,60.68 
		294.89,60.68 294.89,69.47 293.85,69.47 293.85,59.21 295.15,59.21 	"/>
	<rect x="307.71" y="59.21" class="st2" width="1.04" height="10.27"/>
	<path class="st2" d="M313.95,69.47h-1.22l4.47-10.27h1.02l4.47,10.27h-1.22l-1.13-2.7h-5.25L313.95,69.47z M315.47,65.82h4.45
		l-2.22-5.39L315.47,65.82z"/>
</g>
</svg>
